<?xml version="1.0" ?><!DOCTYPE svg  PUBLIC '-//W3C//DTD SVG 1.1//EN'  'http://www.w3.org/Graphics/SVG/1.1/DTD/svg11.dtd'><svg enable-background="new 0 0 48 48" height="48px" version="1.1" viewBox="0 0 48 48" width="48px" xml:space="preserve" xmlns="http://www.w3.org/2000/svg" xmlns:xlink="http://www.w3.org/1999/xlink"><g id="Layer_4"><path d="M47.925,30.109l0.021,0.028L47.885,2.726c0-1.31-1.062-2.37-2.371-2.37c-0.727,0-1.346,0.34-1.784,0.85   l-0.021-0.007L35.294,11.54v0.037C32.252,8.976,28.32,7.385,24,7.385c-4.278,0-8.175,1.565-11.211,4.123l0.018-0.048L4.405,1.234   L4.379,1.248C3.943,0.715,3.312,0.355,2.576,0.355c-1.301,0-2.354,1.053-2.354,2.354l-0.17,27.754c0,0.005-0.003,0.014-0.003,0.017   c0,0.009,0,0.018,0,0.021v0.182h0.012c0.105,9.233,7.502,16.702,16.707,16.938v0.023h14.022c9.479,0,17.162-7.686,17.162-17.164   C47.951,30.356,47.925,30.236,47.925,30.109z M15.055,26.213c-1.426,0-2.582-1.155-2.582-2.582c0-1.427,1.156-2.583,2.582-2.583   c1.427,0,2.583,1.155,2.583,2.583C17.638,25.058,16.482,26.213,15.055,26.213z M24,34.312l-5.164-5.025h10.328L24,34.312z    M32.945,26.213c-1.427,0-2.583-1.155-2.583-2.582c0-1.427,1.156-2.583,2.583-2.583c1.426,0,2.582,1.155,2.582,2.583   C35.527,25.058,34.371,26.213,32.945,26.213z" fill="#241F20"/></g></svg>